<svg width="59" height="59" viewBox="0 0 59 59" fill="none" xmlns="http://www.w3.org/2000/svg">
<path d="M31.8651 41.8128C31.6246 42.2274 31.2793 42.5716 30.864 42.8108C30.4486 43.0501 29.9776 43.176 29.4983 43.176C29.0189 43.176 28.548 43.0501 28.1326 42.8108C27.7173 42.5716 27.372 42.2274 27.1315 41.8128M37.7068 24.0277C37.7068 21.8507 36.842 19.7628 35.3026 18.2234C33.7632 16.684 31.6753 15.8192 29.4983 15.8192C27.3213 15.8192 25.2334 16.684 23.694 18.2234C22.1546 19.7628 21.2898 21.8507 21.2898 24.0277C21.2898 33.6043 17.1855 36.3405 17.1855 36.3405H41.811C41.811 36.3405 37.7068 33.6043 37.7068 24.0277Z" stroke="#333333" stroke-width="2.76744" stroke-linecap="round" stroke-linejoin="round"/>
</svg>
