<svg width="25" height="24" viewBox="0 0 25 24" fill="none" xmlns="http://www.w3.org/2000/svg">
<path d="M4.5 19.5V4.5C4.5 3.96957 4.71071 3.46086 5.08579 3.08579C5.46086 2.71071 5.96957 2.5 6.5 2.5H17.5C18.0304 2.5 18.5391 2.71071 18.9142 3.08579C19.2893 3.46086 19.5 3.96957 19.5 4.5V19.5C19.5 20.0304 19.2893 20.5391 18.9142 20.9142C18.5391 21.2893 18.0304 21.5 17.5 21.5H6.5C5.96957 21.5 5.46086 21.2893 5.08579 20.9142C4.71071 20.5391 4.5 20.0304 4.5 19.5Z" stroke="white" stroke-width="1.25" stroke-linecap="round" stroke-linejoin="round"/>
<path d="M9.5 7.5H15.5" stroke="white" stroke-width="1.25" stroke-linecap="round" stroke-linejoin="round"/>
<path d="M9.5 10.5H15.5" stroke="white" stroke-width="1.25" stroke-linecap="round" stroke-linejoin="round"/>
<path d="M9.5 13.5H13.5" stroke="white" stroke-width="1.25" stroke-linecap="round" stroke-linejoin="round"/>
</svg>