<svg width="25" height="24" viewBox="0 0 25 24" fill="none" xmlns="http://www.w3.org/2000/svg">
<path d="M4.5 6C4.5 5.46957 4.71071 4.96086 5.08579 4.58579C5.46086 4.21071 5.96957 4 6.5 4H8.5C9.03043 4 9.53914 4.21071 9.91421 4.58579C10.2893 4.96086 10.5 5.46957 10.5 6V8C10.5 8.53043 10.2893 9.03914 9.91421 9.41421C9.53914 9.78929 9.03043 10 8.5 10H6.5C5.96957 10 5.46086 9.78929 5.08579 9.41421C4.71071 9.03914 4.5 8.53043 4.5 8V6ZM14.5 6C14.5 5.46957 14.7107 4.96086 15.0858 4.58579C15.4609 4.21071 15.9696 4 16.5 4H18.5C19.0304 4 19.5391 4.21071 19.9142 4.58579C20.2893 4.96086 20.5 5.46957 20.5 6V8C20.5 8.53043 20.2893 9.03914 19.9142 9.41421C19.5391 9.78929 19.0304 10 18.5 10H16.5C15.9696 10 15.4609 9.78929 15.0858 9.41421C14.7107 9.03914 14.5 8.53043 14.5 8V6ZM4.5 16C4.5 15.4696 4.71071 14.9609 5.08579 14.5858C5.46086 14.2107 5.96957 14 6.5 14H8.5C9.03043 14 9.53914 14.2107 9.91421 14.5858C10.2893 14.9609 10.5 15.4696 10.5 16V18C10.5 18.5304 10.2893 19.0391 9.91421 19.4142C9.53914 19.7893 9.03043 20 8.5 20H6.5C5.96957 20 5.46086 19.7893 5.08579 19.4142C4.71071 19.0391 4.5 18.5304 4.5 18V16ZM14.5 16C14.5 15.4696 14.7107 14.9609 15.0858 14.5858C15.4609 14.2107 15.9696 14 16.5 14H18.5C19.0304 14 19.5391 14.2107 19.9142 14.5858C20.2893 14.9609 20.5 15.4696 20.5 16V18C20.5 18.5304 20.2893 19.0391 19.9142 19.4142C19.5391 19.7893 19.0304 20 18.5 20H16.5C15.9696 20 15.4609 19.7893 15.0858 19.4142C14.7107 19.0391 14.5 18.5304 14.5 18V16Z" stroke="white" stroke-width="1.25" stroke-linecap="round" stroke-linejoin="round"/>
</svg>
