<svg width="25" height="24" viewBox="0 0 25 24" fill="none" xmlns="http://www.w3.org/2000/svg">
<path d="M7.5 11.5V14M7.5 11.5V5.5C7.5 5.10218 7.65804 4.72064 7.93934 4.43934C8.22064 4.15804 8.60218 4 9 4C9.39782 4 9.77936 4.15804 10.0607 4.43934C10.342 4.72064 10.5 5.10218 10.5 5.5M7.5 11.5C7.5 11.1022 7.34196 10.7206 7.06066 10.4393C6.77936 10.158 6.39782 10 6 10C5.60218 10 5.22064 10.158 4.93934 10.4393C4.65804 10.7206 4.5 11.1022 4.5 11.5V13.5C4.5 15.4891 5.29018 17.3968 6.6967 18.8033C8.10322 20.2098 10.0109 21 12 21C13.9891 21 15.8968 20.2098 17.3033 18.8033C18.7098 17.3968 19.5 15.4891 19.5 13.5V8.5C19.5 8.10218 19.342 7.72064 19.0607 7.43934C18.7794 7.15804 18.3978 7 18 7C17.6022 7 17.2206 7.15804 16.9393 7.43934C16.658 7.72064 16.5 8.10218 16.5 8.5M10.5 5.5V11M10.5 5.5V4.5C10.5 4.10218 10.658 3.72064 10.9393 3.43934C11.2206 3.15804 11.6022 3 12 3C12.3978 3 12.7794 3.15804 13.0607 3.43934C13.342 3.72064 13.5 4.10218 13.5 4.5V5.5M16.5 8.5V5.5C16.5 5.10218 16.342 4.72064 16.0607 4.43934C15.7794 4.15804 15.3978 4 15 4C14.6022 4 14.2206 4.15804 13.9393 4.43934C13.658 4.72064 13.5 5.10218 13.5 5.5M16.5 8.5V11M13.5 5.5V11" stroke="white" stroke-width="1.25" stroke-linecap="round" stroke-linejoin="round"/>
</svg>
