<svg width="30" height="29" viewBox="0 0 30 29" fill="none" xmlns="http://www.w3.org/2000/svg">
<path d="M21.0922 2.52246H9.18895C5.90195 2.52246 3.2373 5.1871 3.2373 8.4741V20.3774C3.2373 23.6644 5.90195 26.329 9.18895 26.329H21.0922C24.3792 26.329 27.0439 23.6644 27.0439 20.3774V8.4741C27.0439 5.1871 24.3792 2.52246 21.0922 2.52246Z" stroke="black" stroke-width="1.78616" stroke-linecap="round" stroke-linejoin="round"/>
<path d="M19.9013 13.6774C20.0482 14.6681 19.879 15.6798 19.4177 16.5687C18.9565 17.4577 18.2267 18.1785 17.3321 18.6288C16.4376 19.079 15.4238 19.2358 14.4351 19.0767C13.4463 18.9176 12.5329 18.4507 11.8247 17.7426C11.1166 17.0344 10.6498 16.121 10.4907 15.1323C10.3315 14.1435 10.4883 13.1297 10.9385 12.2352C11.3888 11.3406 12.1096 10.6108 12.9986 10.1496C13.8875 9.68832 14.8993 9.51911 15.8899 9.66601C16.9004 9.81585 17.8359 10.2867 18.5583 11.0091C19.2806 11.7314 19.7515 12.6669 19.9013 13.6774Z" stroke="black" stroke-width="1.78616" stroke-linecap="round" stroke-linejoin="round"/>
<path d="M21.689 7.88086H21.7011" stroke="black" stroke-width="1.78616" stroke-linecap="round" stroke-linejoin="round"/>
</svg>
