<svg width="29" height="29" viewBox="0 0 29 29" fill="none" xmlns="http://www.w3.org/2000/svg">
<path d="M19.4735 9.66699C21.3677 9.66699 23.1843 10.4194 24.5237 11.7588C25.863 13.0982 26.6155 14.9148 26.6155 16.809V25.1413H21.8542V16.809C21.8542 16.1776 21.6034 15.572 21.1569 15.1256C20.7104 14.6791 20.1049 14.4283 19.4735 14.4283C18.8421 14.4283 18.2366 14.6791 17.7901 15.1256C17.3437 15.572 17.0929 16.1776 17.0929 16.809V25.1413H12.3315V16.809C12.3315 14.9148 13.084 13.0982 14.4234 11.7588C15.7628 10.4194 17.5793 9.66699 19.4735 9.66699Z" stroke="black" stroke-width="1.78616" stroke-linecap="round" stroke-linejoin="round"/>
<path d="M7.5704 10.856H2.80908V25.1399H7.5704V10.856Z" stroke="black" stroke-width="1.78616" stroke-linecap="round" stroke-linejoin="round"/>
<path d="M5.18974 7.28378C6.50454 7.28378 7.5704 6.21792 7.5704 4.90312C7.5704 3.58832 6.50454 2.52246 5.18974 2.52246C3.87494 2.52246 2.80908 3.58832 2.80908 4.90312C2.80908 6.21792 3.87494 7.28378 5.18974 7.28378Z" stroke="black" stroke-width="1.78616" stroke-linecap="round" stroke-linejoin="round"/>
</svg>
