<svg width="25" height="24" viewBox="0 0 25 24" fill="none" xmlns="http://www.w3.org/2000/svg">
<path d="M17.5 8H19.5C20.0304 8 20.5391 8.21071 20.9142 8.58579C21.2893 8.96086 21.5 9.46957 21.5 10V16C21.5 16.5304 21.2893 17.0391 20.9142 17.4142C20.5391 17.7893 20.0304 18 19.5 18H17.5V22L13.5 18H9.5C9.23733 18.0003 8.97719 17.9486 8.73453 17.8481C8.49187 17.7475 8.27148 17.6 8.086 17.414M8.086 17.414L11.5 14H15.5C16.0304 14 16.5391 13.7893 16.9142 13.4142C17.2893 13.0391 17.5 12.5304 17.5 12V6C17.5 5.46957 17.2893 4.96086 16.9142 4.58579C16.5391 4.21071 16.0304 4 15.5 4H5.5C4.96957 4 4.46086 4.21071 4.08579 4.58579C3.71071 4.96086 3.5 5.46957 3.5 6V12C3.5 12.5304 3.71071 13.0391 4.08579 13.4142C4.46086 13.7893 4.96957 14 5.5 14H7.5V18L8.086 17.414Z" stroke="white" stroke-width="1.25" stroke-linecap="round" stroke-linejoin="round"/>
</svg>
