<svg width="29" height="29" viewBox="0 0 29 29" fill="none" xmlns="http://www.w3.org/2000/svg">
<g clip-path="url(#clip0_1041_718)">
<path d="M25.8538 12.0828C23.5179 12.0828 21.3524 11.3312 19.5855 10.0544V19.2679C19.5855 23.8698 15.8649 27.6123 11.2925 27.6123C9.52557 27.6123 7.88641 27.0519 6.53992 26.1003C4.4017 24.5895 2.99951 22.0908 2.99951 19.2679C2.99951 14.6661 6.72011 10.9225 11.2936 10.9225C11.6736 10.9225 12.0449 10.9543 12.4108 11.0038V12.0773V15.632C12.0569 15.521 11.6835 15.4562 11.2936 15.4562C9.2056 15.4562 7.50638 17.1659 7.50638 19.2679C7.50638 20.7316 8.33197 22.0029 9.53758 22.6413C10.0629 22.9193 10.6602 23.0786 11.2947 23.0786C13.3346 23.0786 14.9989 21.4458 15.0753 19.4108L15.0786 1.24194H19.5844C19.5844 1.63532 19.6226 2.0188 19.6903 2.3924C20.0081 4.11973 21.027 5.60202 22.439 6.52832C23.4218 7.17332 24.5947 7.55022 25.8527 7.55022L25.8538 12.0828Z" stroke="black" stroke-width="1.64876"/>
</g>
<defs>
<clipPath id="clip0_1041_718">
<rect width="28.5679" height="28.5679" fill="white" transform="translate(0.143066 0.144531)"/>
</clipPath>
</defs>
</svg>
