<svg width="30" height="29" viewBox="0 0 30 29" fill="none" xmlns="http://www.w3.org/2000/svg">
<path d="M28.0935 3.71436C26.9536 4.5184 25.6915 5.13336 24.3558 5.53557C23.639 4.71128 22.6862 4.12704 21.6265 3.86188C20.5667 3.59671 19.4511 3.66341 18.4305 4.05296C17.4099 4.4425 16.5335 5.13609 15.92 6.03993C15.3064 6.94376 14.9852 8.01423 14.9999 9.10655V10.2969C12.908 10.3511 10.8352 9.88718 8.9661 8.94639C7.09697 8.00559 5.48952 6.61714 4.28691 4.90469C4.28691 4.90469 -0.474407 15.6176 10.2386 20.379C7.7871 22.043 4.86678 22.8774 1.90625 22.7596C12.6192 28.7113 25.7128 22.7596 25.7128 9.07084C25.7117 8.73928 25.6798 8.40854 25.6176 8.08287C26.8324 6.88479 27.6898 5.37215 28.0935 3.71436Z" stroke="black" stroke-width="1.78616" stroke-linecap="round" stroke-linejoin="round"/>
</svg>
