<svg width="25" height="24" viewBox="0 0 25 24" fill="none" xmlns="http://www.w3.org/2000/svg">
<path d="M17.5 19V17C17.5 15.9391 17.0786 14.9217 16.3284 14.1716C15.5783 13.4214 14.5609 13 13.5 13H6.5C5.43913 13 4.42172 13.4214 3.67157 14.1716C2.92143 14.9217 2.5 15.9391 2.5 17V19" stroke="white" stroke-width="1.25" stroke-linecap="round" stroke-linejoin="round"/>
<path d="M10.5 11C12.1569 11 13.5 9.65685 13.5 8C13.5 6.34315 12.1569 5 10.5 5C8.84315 5 7.5 6.34315 7.5 8C7.5 9.65685 8.84315 11 10.5 11Z" stroke="white" stroke-width="1.25" stroke-linecap="round" stroke-linejoin="round"/>
<path d="M22.5 19V17C22.4993 16.1137 22.2003 15.2528 21.6472 14.5433C21.0941 13.8338 20.3163 13.313 19.425 13.055" stroke="white" stroke-width="1.25" stroke-linecap="round" stroke-linejoin="round"/>
<path d="M17.5 5.05505C18.125 6.18005 17.815 7.64005 16.79 8.22005C16.165 9.34005 14.695 9.65005 13.5 9.22005" stroke="white" stroke-width="1.25" stroke-linecap="round" stroke-linejoin="round"/>
</svg>