<svg width="29" height="29" viewBox="0 0 29 29" fill="none" xmlns="http://www.w3.org/2000/svg">
<g clip-path="url(#clip0_1041_714)">
<path fill-rule="evenodd" clip-rule="evenodd" d="M24.6409 4.29371C21.9674 1.61785 18.4131 0.143036 14.6267 0.141846C6.82408 0.141846 0.473678 6.49106 0.470107 14.2972C0.468917 16.7922 1.12122 19.2276 2.36035 21.3749L0.351074 28.7097L7.85491 26.7409C9.92251 27.8694 12.2508 28.4633 14.6195 28.4645H14.6255C22.4269 28.4645 28.7785 22.1141 28.7821 14.3079C28.7845 10.5263 27.3132 6.96838 24.6409 4.29371ZM14.6267 26.0732H14.6219C12.5103 26.0732 10.4403 25.5054 8.63338 24.4329L8.20367 24.1782L3.75065 25.3459L4.93979 21.0035L4.66006 20.5584C3.48164 18.6848 2.86029 16.5196 2.86148 14.2972C2.86386 7.80994 8.14297 2.53203 14.6326 2.53203C17.7751 2.53203 20.7295 3.75806 22.9507 5.9816C25.1718 8.20632 26.3943 11.1619 26.3931 14.3056C26.3895 20.7952 21.1116 26.0732 14.6267 26.0732ZM21.0806 17.2612C20.7271 17.0838 18.988 16.2279 18.6631 16.1101C18.3393 15.9923 18.1036 15.9327 17.8668 16.2863C17.6299 16.6398 16.9538 17.4373 16.7467 17.6742C16.5407 17.9099 16.3336 17.9396 15.9801 17.7623C15.6266 17.5849 14.4862 17.2123 13.1352 16.0065C12.0841 15.0686 11.3735 13.9104 11.1676 13.5557C10.9617 13.2009 11.1462 13.0105 11.3223 12.8343C11.4818 12.676 11.6759 12.4213 11.8532 12.2142C12.0318 12.0094 12.0901 11.8618 12.2091 11.6249C12.327 11.3893 12.2686 11.1821 12.1794 11.0048C12.0901 10.8286 11.383 9.08716 11.089 8.37892C10.8022 7.68853 10.5105 7.78256 10.2927 7.77185C10.0868 7.76114 9.85109 7.75995 9.61421 7.75995C9.37853 7.75995 8.99524 7.84803 8.67147 8.20275C8.3477 8.55747 7.43353 9.41332 7.43353 11.1536C7.43353 12.895 8.70123 14.577 8.8774 14.8126C9.05357 15.0483 11.3711 18.6217 14.9195 20.1537C15.7634 20.5179 16.4229 20.7357 16.9359 20.8988C17.7834 21.1678 18.5548 21.1297 19.1642 21.0393C19.8439 20.9381 21.2568 20.1834 21.552 19.3573C21.8472 18.5312 21.8472 17.8218 21.7579 17.6754C21.6699 17.5266 21.4342 17.4385 21.0806 17.2612Z" fill="black"/>
</g>
<defs>
<clipPath id="clip0_1041_714">
<rect width="28.5679" height="28.5679" fill="white" transform="translate(0.285645 0.144531)"/>
</clipPath>
</defs>
</svg>
