<svg width="30" height="29" viewBox="0 0 30 29" fill="none" xmlns="http://www.w3.org/2000/svg">
<g clip-path="url(#clip0_1041_707)">
<path d="M27.4001 7.78514C27.2587 7.22022 26.9707 6.70262 26.5653 6.28462C26.1598 5.86661 25.6512 5.56301 25.0909 5.40448C23.0435 4.90454 14.8541 4.90454 14.8541 4.90454C14.8541 4.90454 6.6646 4.90454 4.61723 5.45209C4.05688 5.61063 3.54829 5.91423 3.14283 6.33223C2.73737 6.75023 2.44939 7.26783 2.308 7.83275C1.9333 9.91053 1.75001 12.0183 1.76045 14.1296C1.74709 16.2568 1.93039 18.3806 2.308 20.474C2.46388 21.0214 2.75831 21.5193 3.16282 21.9197C3.56734 22.32 4.06828 22.6093 4.61723 22.7595C6.6646 23.307 14.8541 23.307 14.8541 23.307C14.8541 23.307 23.0435 23.307 25.0909 22.7595C25.6512 22.6009 26.1598 22.2973 26.5653 21.8793C26.9707 21.4613 27.2587 20.9437 27.4001 20.3788C27.7719 18.3167 27.9552 16.225 27.9477 14.1296C27.961 12.0024 27.7777 9.87857 27.4001 7.78514Z" stroke="black" stroke-width="1.78616" stroke-linecap="round" stroke-linejoin="round"/>
<path d="M12.1763 18.0225L19.0207 14.1302L12.1763 10.2378V18.0225Z" stroke="black" stroke-width="1.78616" stroke-linecap="round" stroke-linejoin="round"/>
</g>
<defs>
<clipPath id="clip0_1041_707">
<rect width="28.5679" height="28.5679" fill="white" transform="translate(0.571289 0.144531)"/>
</clipPath>
</defs>
</svg>
